<mxfile host="app.diagrams.net" agent="Mozilla/5.0 (Windows NT 10.0; Win64; x64; rv:131.0) Gecko/20100101 Firefox/131.0" version="24.7.17">
  <diagram name="Page-1" id="DujHJYcPeJ3x1q1kvWpT">
    <mxGraphModel dx="1290" dy="626" grid="1" gridSize="10" guides="1" tooltips="1" connect="1" arrows="1" fold="1" page="1" pageScale="1" pageWidth="827" pageHeight="1169" math="0" shadow="0">
      <root>
        <mxCell id="0" />
        <mxCell id="1" parent="0" />
        <mxCell id="J3yJThA6UZdY_cMuWlBd-1" value="&lt;div&gt;User Interaction&lt;/div&gt;&lt;div&gt;- Android, iOS, Web&lt;br&gt;&lt;/div&gt;&lt;div&gt;Socket.IO&lt;br&gt;&lt;/div&gt;" style="rounded=1;whiteSpace=wrap;html=1;" parent="1" vertex="1">
          <mxGeometry x="210" y="170" width="120" height="60" as="geometry" />
        </mxCell>
        <mxCell id="J3yJThA6UZdY_cMuWlBd-2" value="" style="endArrow=classic;html=1;rounded=0;exitX=0.5;exitY=1;exitDx=0;exitDy=0;" parent="1" source="J3yJThA6UZdY_cMuWlBd-1" edge="1">
          <mxGeometry width="50" height="50" relative="1" as="geometry">
            <mxPoint x="250" y="350" as="sourcePoint" />
            <mxPoint x="270" y="300" as="targetPoint" />
          </mxGeometry>
        </mxCell>
        <mxCell id="J3yJThA6UZdY_cMuWlBd-3" value="HTTPS, JWT" style="text;html=1;align=center;verticalAlign=middle;whiteSpace=wrap;rounded=0;" parent="1" vertex="1">
          <mxGeometry x="240" y="310" width="60" height="30" as="geometry" />
        </mxCell>
        <mxCell id="J3yJThA6UZdY_cMuWlBd-4" value="" style="endArrow=classic;html=1;rounded=0;exitX=0.5;exitY=1;exitDx=0;exitDy=0;" parent="1" source="J3yJThA6UZdY_cMuWlBd-3" edge="1">
          <mxGeometry width="50" height="50" relative="1" as="geometry">
            <mxPoint x="250" y="350" as="sourcePoint" />
            <mxPoint x="270" y="400" as="targetPoint" />
          </mxGeometry>
        </mxCell>
        <mxCell id="J3yJThA6UZdY_cMuWlBd-5" value="" style="rounded=1;whiteSpace=wrap;html=1;" parent="1" vertex="1">
          <mxGeometry x="110" y="400" width="330" height="210" as="geometry" />
        </mxCell>
        <mxCell id="J3yJThA6UZdY_cMuWlBd-6" value="&lt;div&gt;Backend&lt;/div&gt;&lt;div&gt;- Node.js&lt;/div&gt;&lt;div&gt;&lt;br&gt;&lt;/div&gt;&lt;div&gt;WebSockets&lt;br&gt;&lt;/div&gt;" style="text;html=1;align=center;verticalAlign=middle;whiteSpace=wrap;rounded=0;" parent="1" vertex="1">
          <mxGeometry x="240" y="410" width="60" height="80" as="geometry" />
        </mxCell>
        <mxCell id="J3yJThA6UZdY_cMuWlBd-7" value="" style="endArrow=classic;html=1;rounded=0;exitX=0.25;exitY=1;exitDx=0;exitDy=0;entryX=0.273;entryY=0.571;entryDx=0;entryDy=0;entryPerimeter=0;" parent="1" source="J3yJThA6UZdY_cMuWlBd-6" target="J3yJThA6UZdY_cMuWlBd-5" edge="1">
          <mxGeometry width="50" height="50" relative="1" as="geometry">
            <mxPoint x="250" y="500" as="sourcePoint" />
            <mxPoint x="300" y="450" as="targetPoint" />
          </mxGeometry>
        </mxCell>
        <mxCell id="J3yJThA6UZdY_cMuWlBd-9" value="" style="endArrow=classic;html=1;rounded=0;exitX=0.75;exitY=1;exitDx=0;exitDy=0;entryX=0.636;entryY=0.571;entryDx=0;entryDy=0;entryPerimeter=0;" parent="1" source="J3yJThA6UZdY_cMuWlBd-6" target="J3yJThA6UZdY_cMuWlBd-5" edge="1">
          <mxGeometry width="50" height="50" relative="1" as="geometry">
            <mxPoint x="250" y="640" as="sourcePoint" />
            <mxPoint x="300" y="590" as="targetPoint" />
          </mxGeometry>
        </mxCell>
        <mxCell id="J3yJThA6UZdY_cMuWlBd-10" value="AI via Rekognition" style="text;html=1;align=center;verticalAlign=middle;whiteSpace=wrap;rounded=0;" parent="1" vertex="1">
          <mxGeometry x="300" y="530" width="60" height="30" as="geometry" />
        </mxCell>
        <mxCell id="J3yJThA6UZdY_cMuWlBd-12" value="Oauth Authenitication" style="text;html=1;align=center;verticalAlign=middle;whiteSpace=wrap;rounded=0;" parent="1" vertex="1">
          <mxGeometry x="160" y="530" width="60" height="30" as="geometry" />
        </mxCell>
        <mxCell id="J3yJThA6UZdY_cMuWlBd-13" value="" style="endArrow=classic;html=1;rounded=0;exitX=0.25;exitY=1;exitDx=0;exitDy=0;" parent="1" source="J3yJThA6UZdY_cMuWlBd-5" target="J3yJThA6UZdY_cMuWlBd-14" edge="1">
          <mxGeometry width="50" height="50" relative="1" as="geometry">
            <mxPoint x="250" y="640" as="sourcePoint" />
            <mxPoint x="190" y="700" as="targetPoint" />
          </mxGeometry>
        </mxCell>
        <mxCell id="J3yJThA6UZdY_cMuWlBd-14" value="&lt;div&gt;AWS Database&lt;/div&gt;&lt;div&gt;-PostgreSQL&lt;br&gt;&lt;/div&gt;" style="rounded=1;whiteSpace=wrap;html=1;" parent="1" vertex="1">
          <mxGeometry x="130" y="670" width="120" height="60" as="geometry" />
        </mxCell>
      </root>
    </mxGraphModel>
  </diagram>
</mxfile>
